<svg width="24" height="24" viewBox="0 0 24 24" fill="current" xmlns="http://www.w3.org/2000/svg">
<path fill-rule="evenodd" clip-rule="evenodd" d="M12.8713 3.87097C12.8713 3.38995 12.4813 3 12.0003 3C11.5193 3 11.1293 3.38995 11.1293 3.87097V11.1291H3.87097C3.38995 11.1291 3 11.519 3 12C3 12.481 3.38995 12.871 3.87097 12.871H11.1293V20.129C11.1293 20.6101 11.5193 21 12.0003 21C12.4813 21 12.8713 20.6101 12.8713 20.129V12.871H20.129C20.6101 12.871 21 12.481 21 12C21 11.519 20.6101 11.1291 20.129 11.1291H12.8713V3.87097Z" fill="current"/>
</svg>
